<?xml version="1.0" encoding="UTF-8"?>
<svg width="752pt" height="752pt" version="1.1" viewBox="0 0 752 752" xmlns="http://www.w3.org/2000/svg">
 <path d="m180.07 249.15h393.63c14.004 0 25.371-11.367 25.371-25.371s-11.367-25.371-25.371-25.371h-393.63c-14.004 0-25.371 11.367-25.371 25.371s11.367 25.371 25.371 25.371m0 152.22h393.63c14.004 0 25.371-11.367 25.371-25.371s-11.367-25.371-25.371-25.371h-393.63c-14.004 0-25.371 11.367-25.371 25.371s11.367 25.371 25.371 25.371m0 152.22h393.63c14.004 0 25.371-11.367 25.371-25.371 0-14.004-11.367-25.371-25.371-25.371h-393.63c-14.004 0-25.371 11.367-25.371 25.371 0 14.004 11.367 25.371 25.371 25.371" fill-rule="evenodd"/>
</svg>
