<?xml version="1.0" encoding="UTF-8"?>
<svg width="752pt" height="752pt" version="1.1" viewBox="0 0 752 752" xmlns="http://www.w3.org/2000/svg">
 <path d="m567.33 537.02-69.145-68.668c53.988-69.145 48.309-167.65-13.73-229.69-32.676-32.676-76.246-50.672-122.66-50.672s-89.98 17.996-122.66 50.672c-32.676 32.676-50.672 76.246-50.672 122.66 0 46.41 17.996 89.98 50.672 122.66 32.676 32.676 76.246 50.672 122.66 50.672 38.359 0 76.246-12.785 106.55-36.938l68.668 69.617c4.2617 4.2617 9.4727 6.1562 15.156 6.1562 5.6836 0 10.891-2.3672 15.156-6.1562 8.5195-8.0508 8.5195-21.785-0.003906-30.309zm-74.824-175.7c0 35.047-13.734 67.723-38.359 92.348s-57.777 38.359-92.348 38.359-67.723-13.734-92.348-38.359-38.359-57.777-38.359-92.348c0-35.047 13.734-67.723 38.359-92.348s57.777-38.359 92.348-38.359c35.047 0 67.723 13.734 92.348 38.359s38.359 57.305 38.359 92.348z"/>
</svg>
